<svg xmlns="http://www.w3.org/2000/svg" width="1115.16" height="199" viewBox="0 0 1115.16 199"><path d="M220.09 156.26V42.5h35a53.12 53.12 0 0 1 26.84 6.76A47.06 47.06 0 0 1 300.4 68.5a59.26 59.26 0 0 1 6.64 28.32v5.24q0 15.85-6.52 28.2a46.69 46.69 0 0 1-18.4 19.14 53.52 53.52 0 0 1-26.79 6.88ZM243.5 61.5v75.94h11.33q13.74 0 21-9t7.42-25.71v-6q0-17.36-7.18-26.29t-21-8.95Zm124.88 94.76a24.88 24.88 0 0 1-2.27-7.58q-8.21 9.13-21.33 9.14-12.42 0-20.58-7.19a23.09 23.09 0 0 1-8.17-18.13q0-13.44 10-20.63t28.79-7.26h10.39v-4.85q0-5.85-3-9.37t-9.5-3.52q-5.7 0-8.94 2.74a9.28 9.28 0 0 0-3.24 7.5h-22.62a22.7 22.7 0 0 1 4.53-13.61 30 30 0 0 1 12.81-9.8 46.69 46.69 0 0 1 18.59-3.56q15.63 0 24.81 7.86t9.18 22.07v36.64q.07 12 3.36 18.2v1.33Zm-18.68-15.71a19.47 19.47 0 0 0 9.22-2.22 14.6 14.6 0 0 0 6.25-6v-14.51h-8.43q-17 0-18.05 11.72l-.08 1.33a9 9 0 0 0 3 6.95q2.94 2.68 8.09 2.73Zm82.5-89.6v20.78h14.46v16.56H432.2v42.21q0 4.68 1.8 6.72t6.88 2a36.41 36.41 0 0 0 6.64-.55v17.11a46.67 46.67 0 0 1-13.68 2q-23.74 0-24.21-24V88.29h-12.35V71.73h12.35V50.95Zm76.02 105.31a25.16 25.16 0 0 1-2.27-7.58q-8.19 9.13-21.32 9.14-12.44 0-20.59-7.19a23.11 23.11 0 0 1-8.16-18.13q0-13.44 10-20.63t28.79-7.26h10.39v-4.85q0-5.85-3-9.37t-9.56-3.51q-5.72 0-8.95 2.74a9.28 9.28 0 0 0-3.24 7.5h-22.56a22.7 22.7 0 0 1 4.53-13.62 30 30 0 0 1 12.81-9.8 46.74 46.74 0 0 1 18.6-3.56q15.62 0 24.8 7.86t9.18 22.07v36.64q.08 12 3.36 18.2v1.33Zm-18.67-15.71a19.53 19.53 0 0 0 9.22-2.22 14.71 14.71 0 0 0 6.25-6v-14.51h-8.44q-16.95 0-18.05 11.72l-.08 1.33a9 9 0 0 0 3 6.95q2.94 2.68 8.1 2.73Zm138.48 2.19q-5 7.11-15.66 11.1a68 68 0 0 1-23.87 4 44.22 44.22 0 0 1-23.75-6.41 42.68 42.68 0 0 1-16.1-18.12q-5.7-11.71-5.78-26.88V92.04q0-23.67 12-37.38t32.11-13.71q17.56 0 28.28 8.94t12.69 24.61h-9.61q-2.1-12.54-10.19-19t-21.14-6.47q-15.93 0-25.23 11.34t-9.3 32v13.44a56 56 0 0 0 4.42 23 35 35 0 0 0 12.65 15.44 33.47 33.47 0 0 0 19 5.48q12.42 0 21.33-3.91a23 23 0 0 0 8.59-6V110.4h-30.6v-8.13h40.16Zm72.04 13.52a44.11 44.11 0 0 1-1.8-11.8 32.51 32.51 0 0 1-12.54 9.88 38.39 38.39 0 0 1-16.13 3.48q-12.2 0-19.73-6.8a22.12 22.12 0 0 1-7.54-17.18q0-12.34 10.28-19.54t28.63-7.18h17V97.5q0-9.06-5.58-14.26t-16.29-5.2q-9.77 0-16.17 5t-6.41 12l-9.38-.08q0-10.08 9.38-17.46t23-7.39q14.13 0 22.3 7.07t8.41 19.78v40q0 12.27 2.58 18.36v.94Zm-29.38-6.76a31.4 31.4 0 0 0 16.81-4.49 26.68 26.68 0 0 0 10.74-12.11v-18.6H681.5q-14 .17-21.87 5.12t-7.89 13.63a15.13 15.13 0 0 0 5.27 11.8q5.25 4.65 13.68 4.65Zm71.45-99.41v21.64h17.5v7.65h-17.5v56.39q0 7 2.54 10.48t8.48 3.45a57 57 0 0 0 7.58-.79l.39 7.59a30.52 30.52 0 0 1-10 1.32q-9.61 0-14-5.59t-4.37-16.44V79.38h-15.54v-7.65h15.55V50.09Zm66.41 107.73a36.7 36.7 0 0 1-19.49-5.32 36.2 36.2 0 0 1-13.56-14.8 46.11 46.11 0 0 1-4.84-21.29v-3.36a49.76 49.76 0 0 1 4.73-22 37.6 37.6 0 0 1 13.16-15.35 32.52 32.52 0 0 1 18.28-5.59q15.39 0 24.42 10.51t9 28.71v5.24h-60.29v1.79q0 14.39 8.24 24a26.21 26.21 0 0 0 20.74 9.57 30.47 30.47 0 0 0 13.24-2.73 29.39 29.39 0 0 0 10.43-8.7l5.89 4.4q-10.33 14.92-29.95 14.92Zm-1.72-79.69a23.36 23.36 0 0 0-17.77 7.74q-7.23 7.72-8.79 20.78h50.7v-1q-.39-12.18-7-19.84a21.55 21.55 0 0 0-17.14-7.68Zm68.67 58.67 1.4 7.27 1.88-7.66 20.32-64.68h8l20.08 64.14 2.19 8.9 1.79-8.2 17.34-64.84h9.68l-24.61 84.53h-8l-21.72-67-1-4.61-1 4.68-21.33 67h-8l-24.51-84.6h9.61Zm149 19.46a44.11 44.11 0 0 1-1.8-11.8 32.51 32.51 0 0 1-12.54 9.88 38.36 38.36 0 0 1-16.13 3.48q-12.19 0-19.73-6.8a22.15 22.15 0 0 1-7.54-17.18q0-12.34 10.28-19.54t28.63-7.18h17V97.5q0-9.06-5.58-14.26t-16.29-5.2q-9.76 0-16.17 5t-6.41 12l-9.38-.08q0-10.08 9.38-17.46t23-7.39q14.13 0 22.3 7.07t8.4 19.73v40q0 12.27 2.58 18.36v.94Zm-29.42-6.76a31.4 31.4 0 0 0 16.76-4.53 26.68 26.68 0 0 0 10.74-12.11V114.3h-16.72q-14 .17-21.87 5.12t-7.89 13.63a15.13 15.13 0 0 0 5.27 11.8q5.28 4.65 13.71 4.65Zm85.32-6.68 24.69-71.09h10.07l-36.09 98.9-1.87 4.38q-7 15.39-21.49 15.39a26.22 26.22 0 0 1-7.19-1.1l-.07-7.73 4.84.47q6.87 0 11.13-3.4t7.23-11.68l4.14-11.41-31.88-83.82h10.24Z" data-name="Layer 1" fill="#2e2d62"/><g data-name="D amrk" fill="#1e5df8"><path d="M169.71 29.29A100 100 0 0 0 0 85.86l43.14-43.14a80.002 80.002 0 0 1 113.14 113.14L113.14 199a100 100 0 0 0 56.57-169.71Z"/><path d="M159.62 99.29A60 60 0 0 0 57.28 56.87L0 114.15a100 100 0 0 0 5.89 22.35l65.53-65.49a40.001 40.001 0 0 1 56.57 56.57L62.5 193.11A100 100 0 0 0 84.89 199l57.28-57.28a59.57 59.57 0 0 0 17.45-42.43Z"/><path d="M113.85 85.15a20 20 0 0 0-28.29 0l-70 70a101 101 0 0 0 28.29 28.29l70-70a20 20 0 0 0 0-28.29Z"/></g></svg>