<svg xmlns="http://www.w3.org/2000/svg" xmlns:xlink="http://www.w3.org/1999/xlink" width="637.7" height="178.46" viewBox="0 0 637.7 178.46"><defs><clipPath id="ffca7e86-72f7-4042-9260-f283c0125142" transform="translate(78.92)"><circle cx="50.04" cy="50" r="50" fill="none"/></clipPath></defs><g id="b71dba90-26e2-4d60-ad16-be709e38322c" data-name="DataGateway"><text transform="translate(183.95 79.81)" font-size="80" fill="#2e2d62" font-family="Roboto-Bold, Roboto" font-weight="700"><tspan letter-spacing="-0.02em">D</tspan><tspan x="50.39" y="0">at</tspan><tspan x="120.31" y="0" letter-spacing="-0.03em">a</tspan><tspan x="160.8" y="0" font-family="Roboto-Light, Roboto" font-weight="300" letter-spacing="-0.04em">G</tspan><tspan x="212.29" y="0" font-family="Roboto-Light, Roboto" font-weight="300" letter-spacing="-0.03em">a</tspan><tspan x="252.74" y="0" font-family="Roboto-Light, Roboto" font-weight="300" letter-spacing="-0.02em">te</tspan><tspan x="316.58" y="0" font-family="Roboto-Light, Roboto" font-weight="300" letter-spacing="-0.03em">w</tspan><tspan x="374.49" y="0" font-family="Roboto-Light, Roboto" font-weight="300" letter-spacing="-0.02em">a</tspan><tspan x="415.74" y="0" font-family="Roboto-Light, Roboto" font-weight="300">y</tspan></text><ellipse cx="128.96" cy="50" rx="49.71" ry="49.78" fill="#fff"/></g><g id="ad8e21d1-e80e-441d-8212-3fd6bf0240f8" data-name="Circle"><path d="M50,0A50,50,0,0,0,.63,42.35L21.69,21.29a40.1,40.1,0,0,1,56.56,0h0a40.11,40.11,0,0,1,0,56.57L56.55,99.57A50,50,0,0,0,50,0Z" transform="translate(78.92)" fill="#1e5df8"/></g><g id="e9ef30f4-2a26-407b-9d56-ea47ba99ff07" data-name="Layer 7"><g clip-path="url(#ffca7e86-72f7-4042-9260-f283c0125142)"><path d="M50,29.54a20,20,0,0,1,14.14,34.1l-99,99a19.88,19.88,0,0,1-14.14,5.82,19.89,19.89,0,0,1-14.15-5.82,20,20,0,0,1,0-28.28l99-99A19.86,19.86,0,0,1,50,29.54m0-10a29.91,29.91,0,0,0-21.21,8.75l-99,99a30.11,30.11,0,0,0,0,42.43h0a30,30,0,0,0,21.22,8.75,29.91,29.91,0,0,0,21.21-8.75l99-99a30.09,30.09,0,0,0,0-42.43h0A29.91,29.91,0,0,0,50,19.54Z" transform="translate(78.92)" fill="#1e5df8"/></g></g><g id="a8924619-757c-46d8-9ac3-97f890240912" data-name="Layer 6"><path d="M43.11,42.29l-35,35a50.24,50.24,0,0,0,14,14.25L57.25,56.43A10,10,0,0,0,43.11,42.29Z" transform="translate(78.92)" fill="#1e5df8"/></g></svg>