<?xml version="1.0" encoding="utf-8"?>
<svg width="1115.16" height="199" viewBox="0 0 1115.16 199" xmlns="http://www.w3.org/2000/svg">
  <g id="eb2f839e-623c-4ace-a82b-30a6c19c1fcb" data-name="Layer 1">
    <path d="M220.59,156.76V43h35a53.12,53.12,0,0,1,26.84,6.76A47.06,47.06,0,0,1,300.9,69a59.26,59.26,0,0,1,6.64,28.32v5.24q0,15.85-6.52,28.2a46.69,46.69,0,0,1-18.4,19.14,53.52,53.52,0,0,1-26.79,6.88ZM244,62v75.94h11.33q13.74,0,21-9t7.42-25.71v-6q0-17.36-7.18-26.29t-21-8.95Z" transform="translate(-0.5 -0.5)" style="fill: rgb(255, 255, 255);"/>
    <path d="M368.88,156.76a24.88,24.88,0,0,1-2.27-7.58q-8.21,9.13-21.33,9.14-12.42,0-20.58-7.19A23.09,23.09,0,0,1,316.53,133q0-13.44,10-20.63t28.79-7.26h10.39v-4.85q0-5.85-3-9.37t-9.5-3.52q-5.7,0-8.94,2.74a9.28,9.28,0,0,0-3.24,7.5H318.41A22.7,22.7,0,0,1,322.94,84a30,30,0,0,1,12.81-9.8,46.69,46.69,0,0,1,18.59-3.56q15.63,0,24.81,7.86t9.18,22.07v36.64q.07,12,3.36,18.2v1.33ZM350.2,141.05a19.47,19.47,0,0,0,9.22-2.22,14.6,14.6,0,0,0,6.25-6V118.32h-8.43q-17,0-18.05,11.72l-.08,1.33a9,9,0,0,0,3,6.95Q345.05,141,350.2,141.05Z" transform="translate(-0.5 -0.5)" style="fill: rgb(255, 255, 255);"/>
    <path d="M432.7,51.45V72.23h14.46V88.79H432.7V131q0,4.68,1.8,6.72t6.88,2a36.41,36.41,0,0,0,6.64-.55v17.11a46.67,46.67,0,0,1-13.68,2q-23.74,0-24.21-24V88.79H397.78V72.23h12.35V51.45Z" transform="translate(-0.5 -0.5)" style="fill: rgb(255, 255, 255);"/>
    <path d="M508.72,156.76a25.16,25.16,0,0,1-2.27-7.58q-8.19,9.13-21.32,9.14-12.44,0-20.59-7.19A23.11,23.11,0,0,1,456.38,133q0-13.44,10-20.63t28.79-7.26h10.39v-4.85q0-5.85-3-9.37T493,87.38q-5.72,0-8.95,2.74a9.28,9.28,0,0,0-3.24,7.5H458.25A22.7,22.7,0,0,1,462.78,84a30,30,0,0,1,12.81-9.8,46.74,46.74,0,0,1,18.6-3.56q15.62,0,24.8,7.86t9.18,22.07v36.64q.08,12,3.36,18.2v1.33Zm-18.67-15.71a19.53,19.53,0,0,0,9.22-2.22,14.71,14.71,0,0,0,6.25-6V118.32h-8.44q-16.95,0-18.05,11.72l-.08,1.33a9,9,0,0,0,3,6.95Q484.89,141,490.05,141.05Z" transform="translate(-0.5 -0.5)" style="fill: rgb(255, 255, 255);"/>
    <path d="M628.53,143.24q-5,7.11-15.66,11.1a68,68,0,0,1-23.87,4,44.22,44.22,0,0,1-23.75-6.41,42.68,42.68,0,0,1-16.1-18.12q-5.7-11.71-5.78-26.88V92.54q0-23.67,12-37.38t32.11-13.71q17.56,0,28.28,8.94T628.45,75h-9.61q-2.1-12.54-10.19-19t-21.14-6.47q-15.93,0-25.23,11.34t-9.3,32v13.44a56,56,0,0,0,4.42,23,35,35,0,0,0,12.65,15.44,33.47,33.47,0,0,0,19,5.48q12.42,0,21.33-3.91a23,23,0,0,0,8.59-6V110.9H588.37v-8.13h40.16Z" transform="translate(-0.5 -0.5)" style="fill: rgb(255, 255, 255);"/>
    <path d="M700.57,156.76a44.11,44.11,0,0,1-1.8-11.8,32.51,32.51,0,0,1-12.54,9.88,38.39,38.39,0,0,1-16.13,3.48q-12.2,0-19.73-6.8a22.12,22.12,0,0,1-7.54-17.18q0-12.34,10.28-19.54t28.63-7.18h17V98q0-9.06-5.58-14.26t-16.29-5.2q-9.77,0-16.17,5t-6.41,12l-9.38-.08q0-10.08,9.38-17.46t23-7.39q14.13,0,22.3,7.07T708,97.46v40q0,12.27,2.58,18.36v.94ZM671.19,150A31.4,31.4,0,0,0,688,145.51a26.68,26.68,0,0,0,10.74-12.11V114.8H682q-14,.17-21.87,5.12t-7.89,13.63a15.13,15.13,0,0,0,5.27,11.8Q662.76,150,671.19,150Z" transform="translate(-0.5 -0.5)" style="fill: rgb(255, 255, 255);"/>
    <path d="M742.64,50.59V72.23h17.5v7.65h-17.5v56.39q0,7,2.54,10.48t8.48,3.45a57,57,0,0,0,7.58-.79l.39,7.59a30.52,30.52,0,0,1-10,1.32q-9.61,0-14-5.59t-4.37-16.44V79.88H717.72V72.23h15.55V50.59Z" transform="translate(-0.5 -0.5)" style="fill: rgb(255, 255, 255);"/>
    <path d="M809.05,158.32A36.7,36.7,0,0,1,789.56,153,36.2,36.2,0,0,1,776,138.2a46.11,46.11,0,0,1-4.84-21.29v-3.36a49.76,49.76,0,0,1,4.73-22,37.6,37.6,0,0,1,13.16-15.35,32.52,32.52,0,0,1,18.28-5.59q15.39,0,24.42,10.51t9,28.71v5.24H780.46v1.79q0,14.39,8.24,24a26.21,26.21,0,0,0,20.74,9.57,30.47,30.47,0,0,0,13.24-2.73A29.39,29.39,0,0,0,833.11,139L839,143.4Q828.67,158.32,809.05,158.32Zm-1.72-79.69a23.36,23.36,0,0,0-17.77,7.74q-7.23,7.72-8.79,20.78h50.7v-1q-.39-12.18-7-19.84A21.55,21.55,0,0,0,807.33,78.63Z" transform="translate(-0.5 -0.5)" style="fill: rgb(255, 255, 255);"/>
    <path d="M876,137.3l1.4,7.27,1.88-7.66L899.6,72.23h8l20.08,64.14,2.19,8.9,1.79-8.2L949,72.23h9.68l-24.61,84.53h-8l-21.72-67-1-4.61-1,4.68-21.33,67h-8L848.51,72.23h9.61Z" transform="translate(-0.5 -0.5)" style="fill: rgb(255, 255, 255);"/>
    <path d="M1025,156.76a44.11,44.11,0,0,1-1.8-11.8,32.51,32.51,0,0,1-12.54,9.88,38.36,38.36,0,0,1-16.13,3.48q-12.19,0-19.73-6.8a22.15,22.15,0,0,1-7.54-17.18q0-12.34,10.28-19.54t28.63-7.18h17V98q0-9.06-5.58-14.26t-16.29-5.2q-9.76,0-16.17,5t-6.41,12l-9.38-.08q0-10.08,9.38-17.46t23-7.39q14.13,0,22.3,7.07t8.4,19.73v40q0,12.27,2.58,18.36v.94ZM995.58,150a31.4,31.4,0,0,0,16.76-4.53,26.68,26.68,0,0,0,10.74-12.11V114.8h-16.72q-14,.17-21.87,5.12t-7.89,13.63a15.13,15.13,0,0,0,5.27,11.8Q987.15,150,995.58,150Z" transform="translate(-0.5 -0.5)" style="fill: rgb(255, 255, 255);"/>
    <path d="M1080.9,143.32l24.69-71.09h10.07l-36.09,98.9-1.87,4.38q-7,15.39-21.49,15.39a26.22,26.22,0,0,1-7.19-1.1l-.07-7.73,4.84.47q6.87,0,11.13-3.4t7.23-11.68l4.14-11.41-31.88-83.82h10.24Z" transform="translate(-0.5 -0.5)" style="fill: rgb(255, 255, 255);"/>
  </g>
  <g id="b074a1e9-6de5-4314-8d6e-719a56511290" data-name="D amrk">
    <path d="M170.21,29.79A100,100,0,0,0,.5,86.36L43.64,43.22A80,80,0,0,1,156.78,156.36L113.64,199.5A100,100,0,0,0,170.21,29.79Z" transform="translate(-0.5 -0.5)" fill="#1e5df8"/>
    <path d="M160.12,99.79A60,60,0,0,0,57.78,57.37L.5,114.65A100,100,0,0,0,6.39,137L71.92,71.51a40,40,0,0,1,56.57,56.57L63,193.61a100,100,0,0,0,22.39,5.89l57.28-57.28A59.57,59.57,0,0,0,160.12,99.79Z" transform="translate(-0.5 -0.5)" fill="#1e5df8"/>
    <path d="M114.35,85.65a20,20,0,0,0-28.29,0l-70,70a101,101,0,0,0,28.29,28.29l70-70A20,20,0,0,0,114.35,85.65Z" transform="translate(-0.5 -0.5)" fill="#1e5df8"/>
  </g>
</svg>